<svg id="visual" viewBox="0 0 900 600" width="900" height="600" xmlns="http://www.w3.org/2000/svg" xmlns:xlink="http://www.w3.org/1999/xlink" version="1.1"><g transform="translate(407.472003901068 274.13790478050913)"><path d="M100.6 -149.2C146.1 -127.3 209.5 -126 241.1 -98C272.7 -70 272.4 -15.5 241.4 17.9C210.4 51.2 148.7 63.3 115.7 98.9C82.7 134.6 78.6 194 50.6 227.3C22.6 260.7 -29.1 268 -78.3 257.7C-127.5 247.3 -174.1 219.3 -179.2 176C-184.2 132.8 -147.8 74.4 -137.6 30.4C-127.3 -13.6 -143.2 -43.1 -136.2 -63.7C-129.2 -84.4 -99.2 -96 -72.7 -126.6C-46.1 -157.1 -23.1 -206.6 2.3 -210.1C27.6 -213.6 55.1 -171.1 100.6 -149.2" fill="#BB004B"></path></g></svg>